<?xml version="1.0" standalone="no"?>
<!DOCTYPE svg PUBLIC "-//W3C//DTD SVG 20010904//EN"
 "http://www.w3.org/TR/2001/REC-SVG-20010904/DTD/svg10.dtd">
<svg version="1.0" xmlns="http://www.w3.org/2000/svg"
 width="71.000000pt" height="74.000000pt" viewBox="0 0 71.000000 74.000000"
 preserveAspectRatio="xMidYMid meet">

<g transform="translate(0.000000,74.000000) scale(0.100000,-0.100000)"
fill="#000000" stroke="none">
<path d="M271 695 c-71 -20 -110 -45 -165 -106 -54 -60 -76 -121 -76 -210 0
-131 70 -243 185 -299 74 -36 198 -35 275 1 66 32 123 86 158 154 23 43 27 62
27 140 0 71 -5 100 -22 137 -66 143 -234 223 -382 183z m201 -57 c63 -27 131
-103 154 -170 34 -103 4 -219 -77 -298 -176 -171 -479 -44 -479 200 0 78 12
120 51 173 83 115 219 152 351 95z"/>
<path d="M289 575 c-62 -34 -80 -129 -35 -182 l24 -27 -44 -39 c-46 -40 -76
-109 -56 -129 13 -13 32 -1 32 20 0 53 79 122 138 122 70 0 124 -39 147 -107
16 -46 42 -52 36 -8 -5 44 -27 81 -65 110 l-35 26 25 36 c41 61 24 145 -38
179 -30 17 -97 17 -129 -1z m131 -50 c56 -56 14 -145 -70 -145 -30 0 -43 6
-64 31 -14 17 -26 39 -26 49 0 35 24 73 55 86 38 17 73 10 105 -21z"/>
</g>
</svg>
